/* XPM */
static char *_c8401754e7d4ceaba5ffba3b5dffc8bLssz69w3PAsxp67u[] = {
/* columns rows colors chars-per-pixel */
"64 64 106 2 ",
"   c #2D3C3E",
".  c #3E3837",
"X  c #363B3C",
"o  c #3B3B3B",
"O  c #671700",
"+  c #6E1700",
"@  c #671A01",
"#  c #6B1B00",
"$  c #6E2102",
"%  c #6E270D",
"&  c #752301",
"*  c #7A2400",
"=  c #7E2905",
"-  c #71260B",
";  c #71280A",
":  c #7B2A0B",
">  c #652715",
",  c #6D2711",
"<  c #662816",
"1  c #6D2812",
"2  c #662B1B",
"3  c #692A1A",
"4  c #712710",
"5  c #712811",
"6  c #7A2C11",
"7  c #423736",
"8  c #4B3734",
"9  c #433936",
"0  c #4A3A36",
"q  c #433A39",
"w  c #4A3C39",
"e  c #503832",
"r  c #583934",
"t  c #842600",
"y  c #862B04",
"u  c #8C2D03",
"i  c #822E0D",
"p  c #8B2E08",
"a  c #912F04",
"s  c #84310F",
"d  c #923106",
"f  c #933209",
"g  c #802F12",
"h  c #853313",
"j  c #893515",
"k  c #8C3816",
"l  c #853719",
"z  c #893719",
"x  c #85381B",
"c  c #893819",
"v  c #973710",
"b  c #963813",
"n  c #993B15",
"m  c #A53D0C",
"M  c #A43F15",
"N  c #A93F11",
"B  c #AD410E",
"V  c #A64015",
"C  c #AD4315",
"Z  c #A54218",
"A  c #AE4519",
"S  c #AE481E",
"D  c #B04516",
"F  c #B14718",
"G  c #B3491B",
"H  c #B44C20",
"J  c #B54D21",
"K  c #B54D22",
"L  c #B64D23",
"P  c #B84E21",
"I  c #B75025",
"U  c #B85025",
"Y  c #B85125",
"T  c #BA5328",
"R  c #C7673F",
"E  c #C9673E",
"W  c #C8683D",
"Q  c #C9683E",
"!  c #CB693F",
"~  c #C66A43",
"^  c #C86941",
"/  c #C86A41",
"(  c #CA6A41",
")  c #CC6B42",
"_  c #CB6C42",
"`  c #CF6D43",
"'  c #CB6E45",
"]  c #CF6E44",
"[  c #D06F45",
"{  c #D06F46",
"}  c #CF7147",
"|  c #CE7148",
" . c #CF7249",
".. c #CF724B",
"X. c #D17046",
"o. c #D37247",
"O. c #D07148",
"+. c #D57349",
"@. c #D3744B",
"#. c #D4754A",
"$. c #D5754B",
"%. c #D3754C",
"&. c #D5754C",
"*. c #D6784D",
"=. c #D7784E",
"-. c #D9784D",
/* pixels */
"..$.@.$.O.O.&.O.O.@.@.O.&.] G C G A & % o 9 # h ' @...} $.` G G o.&.o.$...O.@.@.@.@.o.o.$.O.O.&.&...G C G F * ; o q # h ] %.....",
"( ` ) ` o.o.` ` o...` ) o.Q G C A M * - o q @ h } @.} } O.` G G ` ] ` [ o.o.` ` ` ` o.} ] [ ] ] ] Q G C A V * ; q q # h } O.} } ",
"G G F U $.o.G L $.o.G G G G G D d u & - o w # h ` $.@.@.-.o.G D A C G U @.@.G G D I $.o.L D G D G G G D a u * - o 0 # h ' $.$.O.",
"C C B G ) E D F ( Q A B D C C V u u & - o q # h ' $.Q _ [ Q G D L L C D _ ( D C B G [ ! C C L G D C C V a t * ; o q # h ] &.` ( ",
"S G G G G G F G G F G G G F d u u u * - o q # s ..@.G D G G D G +.o.G D G G G G G G G G C L o.o.G D f u u u & ; o q # s ..$.L C ",
"C F C V N N F D N N C N C V u y a y & - o q # i ( Q D C C C V D ~ ( F D V B V C D F N V B S R R D m d t u u & ; . q $ s R Q C m ",
"F F a a a f F D f u a a u a a u a u * - o q & = A G G C f u d a u f G D a a a f D F d u u u d a u u u u u u * * o 9 & = A G f u ",
"Z V u y y u C V u y u y y u u y y y 4 3 o q < 6 V V C V u y y y t u V V u y y u V V u y u u y y u u u u u y - 3 o q 1 5 V V u y ",
"& * & & & * & * * * & & * * & & & ; o o o o X 9 ; * * & & * & * * * & * * * * * & * & & & & * * * & & * * ; o o o o X 9 ; * * & ",
"% % - % - % % - - % % % % % - - - 1 o o o o X q , ; % % % % % ; - - , % % % % 1 % % % % % % % % % % - % ; 1 o X o o X q % ; 1 % ",
"X o X o o o o o o o o o o X o X X o X o o o X X X o o X X X X o o o o o o . o o o X o X X o o o o X X X o o X o o X o X X o X o ",
"7 0 0 0 o o o o o o 0 0 0 0 0 0 0 0 0 0 0 q 0 0 8 0 0 0 0 8 0 0 9 0 o o o o o o 9 0 0 8 0 0 0 w 0 0 0 0 0 0 0 0 0 0 0 0 0 8 9 0 ",
"# & & , o X o o X 9 # + # + + + # # # # # # # + # + # # # # & ; & % o X o o X o # + # # + # + # + + # # # # + # + # # # $ $ & $ ",
"= y t 5 8 9 o q . r x k j l c c k x z z c c c x j l k k j h = = y 5 8 9 o o 9 e l k x k c k x k z z k k j j x c j k c k y = y = ",
"Z F G Z * % o w @ j ~ @.} o.} } } } } o.o.} } } o.......@.} G B G V * % o q $ 6 ' o.} o.@.} } } } o.O.O...o.} } ......_ G C A S ",
"F F C V * ; o w @ k } $.] } $.$.o.@.o.$.O.@.o.@.` } ` ` } ( L C A V * - o q & s ..$...O.@.@.o.@...O.o.} ` } o.@.` } @.o.G C G A ",
"F C a u * % o w @ h } ] C G } O.$.@.@.@.@.@.$.} F B G G F F F D d u * 1 o q $ 6 } $.} ..o...@.o.$.} C B D G O.O.G L $.o.D C G C ",
"A C u y * % o w # h ..o.L I } o._ ` ` ` _ ` } Q I G F C D D D V u y * - o q & h } o.} o...} ` ` } E U G D G [ ` C F o.! G D G F ",
"G F d u * % o w O k ' $.` } @.@.G G G G G G F L o.o.G C G C d u a u & - o q $ : Q @.$.@.*.} U F G U o.[ G D G G G G G G F F F F ",
"V V u u * % o w @ k ' $.@.o.` Q G C L G D C B G } Q F C G C f a u u & % o q $ i } @.! Q [ W G C B G o.} G D D D V C D C C F F A ",
"p u u u * % o w O k ' $.@.} L G D G $.o.G F G G F G F G A D F C d u * % o q $ s } } C C G G D F C U o.o.G D G G u d G G F G G F ",
"y u u u * % o w # k ' $.` Q F C L U } Q G D F C V C C D D D D V a y * % o q $ : } } I G F C L I C L [ Q D D C V d f V C F C C V ",
"u u u u * % o w O h } o.G G G G o.o.G F F F G C f u a f G D a u u u * % o q $ h o.$.o.o.G G o.o.G D G G G C u d F F u d G D d u ",
"u u u u * % o w # h } } D C A G } Q D C C C C C d a a f Z V a y u u & % o 9 $ = R } o.! A G ` Q G C C V C C d d C V d d C V u u ",
"u u u u * % o 0 O j ..[ G D G G F G F D a u a d C F F C d u a u u u * - o q - * A G G F F D d d F F d u a d F F a f F A a a a u ",
"u u u u * 4 o 0 @ j ( [ G C C C C C D V u u y a Z F F V a y u u u u & - o q $ = C D Z C D C y u C Z u u u u C Z u u F V u y u u ",
"u u u u * - o q $ y A G G C d u d u d u a u u a a u a u a u a u u u * ; o 9 & = C A d u d u u u a u u u u u u a u u u u a u u u ",
"y y u y - 3 o 0 > 6 M C V V u y u u y u u y u y u y u u y u y y u y 5 3 o o 1 5 Z Z u y u y u u u u u y u u u y u u u u y u y y ",
"& & * - q X o o X 8 ; * & & * * * * * * * & * * * & * * * * * * * - o o o o X 9 & * * * & * * * & * * & * * * * & * & * * & * & ",
", 5 ; 3 . o o q X 8 1 - 1 4 1 5 1 1 5 5 1 1 5 1 1 % 5 5 1 1 5 5 - < o o o q o q < - 1 1 5 1 1 5 % 5 1 1 1 1 1 1 , 5 1 1 - 5 5 , ",
"o o o X X X X X X X o o o o o o X X o o X X X o X X X X X X X o o X X X X X X X o o o o o o o o o o o X X o X X o o o X X X o X ",
"9 0 q 0 0 0 0 9 0 9 o o o o o q 8 w w w w e w e w e w e w e w w 8 w w 8 0 w 0 0 w 8 o o o o o o q 0 0 0 0 0 0 0 0 0 0 0 0 0 0 0 ",
"@ @ $ $ $ $ $ % & < o X o o   o y t t t t t t y t t y y t t t t u y u y y u u y u i o X o o X o @ + # O # # @ # # @ # @ # # # # ",
"j j y y = = t = t 6 8 9 q q 9 r n n n n n n n v n v n f n n n v f f f f d d d d a j e 7 o q o e x z l z j h j j h h j j h h j h ",
".._ B V A A C A A Z = < o w y b ] ..} ' } ..} } ....} } ..} @._ G C C C C C C G F Z * , q 0 @ h ~ O.] ] } } ` } O.} ] ] } ....' ",
"_ ` U U G G G D G V * % o 0 y v O.%.$.%.O.o.o.o.` [ o.o.} } } [ G D L P G G C C F A * % o w @ k O.=.O.@.$.@.@.$.[ [ $.@.` ` o.] ",
"V L +.` F C G G G V = , o w y v } +.} ..%.} D C G A C C D F B C C L } o.G C u u F A * , o w @ h ' $.} } } } O.+.G G @...G C D C ",
"C G ` _ F F A V C V * , o w y v ..O.o.O.] ` I G D D G G G G G I C G ` ` G C d f C Z * , q w @ h ' $.o.@.%.O.[ Q G G ` ( G D L L ",
"F G G G F C a u d p * 1 o 0 y v } @.$.o.C G o.o.C G -.o.B G o.o.G D G F F F G C f u * 4 o w # h ' &.O.@.@.o.L G C C G G B G [ o.",
"C D C C F C f u u y * 1 o 8 y v } @.] ( G I ` ] I U } ` G I } } G D D D C F D C u y * 5 o w @ h ' &.@.O.} Q D D I L C G G T ` ` ",
"C G G F F F G C f y * 1 o 0 y v } } G I o.o.F G X.X.D L o.o.G F F F G G F D a u a u * 1 o w # h } $.O.} G F C G } ` C G o.o.G A ",
"C G F F F C F V a y * 1 o w t v } o.B G o.` C G X.o.B G } ` F B G D F C F C d a u y * 1 q w @ j _ @.@.` G C G I @.o.G I [ ` G V ",
"F F F F G D d u a p * 1 o w y v o.} G D C G F F F F C G G G F F F F F F G F F V a u * , o w # h ' $.@.o.G G o.o.o.} @.} G D G D ",
"A F C G D V d y p y * 1 o 0 y v } } C G G G F F D F I G C C F F F F F F C C F D a y * % o 0 @ h } @.` ` G G ` o.o.o.o.Q G C D G ",
"C F G C u u u y a y * 1 o 0 y v o.[ F G $.} D C B L o.} G D F F F F A D d f D C a y * , o w @ h ..] G C C D D G O.o.G D G F F F ",
"A F D D d d d a a y * 1 o 0 y v ..o.F G o.[ P L G I } Q G D F F F D G C u u D S f y * 4 q w @ i } o.D C L G C G ` ` F D G F D A ",
"F G F F D D G C d y * 1 o 0 y v ..o.F D D L o.o.=.} L B F F F F F D G C u a D D a y * , o w # h } o.G G o.} G F G D D F G D G F ",
"A D F F D D D V d y * 1 o 0 y v o.] F D D G ` [ o.Q G D G F F F F D D D d d D C a y * 5 o w # h } +.D G o.o.G C G C G D D G D A ",
"C D G D F C d u u y * 1 o 0 y b o.} D D D C G G A G D F F F F F F G F D C G D D a u * , o w # s ..] F G $.o.G F F F F F F F F F ",
"A G C C G C u u u u * 1 o w y v ..` F F L G D D F D F F S D F D C C D G G D C C u y * 4 o w @ s } ] F G } ` G C F F F F F F F D ",
"F C u d F C a u a y * 1 o 0 t v O.+.D H o.[ G D G G F F F D F C a a F F F D f u u p * , o w @ s O.] F C G G F D F F F F F F F G ",
"C C d f C V u u u u * 1 o 8 y v ) ( F G ` ` G C C C D D D D F D d f D D C V u u u p * 4 o w # i ..o.G C C C F G F F C Z F D C C ",
"G G G C d u u u u p * 1 o 9 u d F G F F G G G A u a F F u d D F F F F F a u u u u p & 4 o w # h ..+.G C G G F F F D u d F D a y ",
"V C C N u y u u u y * 1 o 0 u d C D F F C V D C d d D F d d C F Z C C C u u u u u u * , o 0 # i ( ( G D C C D D D C d d D C d u ",
"u d a a a u u u u p * 5 o 0 y d F G G D a f F G G F G F F F F F d u d d u u u u u p * % o 0 % t S G G C d d F G G F F F G F G D ",
"u y y u u u u u u p * < o 0 y d C D D C y a V A C Z C Z C C C V a u y y u u u u u y * , o 7 % = N C F C u u V C C C C D Z C D Z ",
"u a u u u u u u u u * - o 0 y a G F G D d d a a a a d a a a d a a u u a u u u u u u * ; o 0 # t G G F G d u a d d d a a a d d u ",
"y y u y p y u y u i - 3 o 0 g f Z A Z Z u u y y y y y y y y y y u y y y y p y u p y - 3 o q < 6 Z C C V p y y y y y y y y y y y ",
"& * * * * * & * * 4 0 o o o q 0 * * t * & * * * * * * * * * * * * * * * * * * * * ; 0 o o q o 8 : * * * * * * * * * * * * * * * ",
", 1 % 1 1 , , 1 - 2 o X q o X o < , 1 < 1 1 1 1 , , 1 , , 1 1 % % , , % , 1 1 < % < . X q o X o < % > % , 1 1 , 1 1 1 1 1 , 1 1 ",
"o o o o o o o o o o X X X X o o o o q q o o q o o o o o o o o o o o o o o o o o o o X X X X o o o o o o o o o o o o q o o o o o ",
"9 o 9 q 9 9 9 9 9 9 9 8 9 9 9 q 9 9 o X o o X o q 9 9 q 9 9 9 9 9 9 9 9 9 9 9 q 9 9 9 0 9 9 9 7 9 9 q 9 q 9 o o o o X o q q q 7 ",
"$ ; & & & ; ; & ; * ; & - * & & * , o o o o X 9 ; * ; & & ; ; & ; * & ; * ; & & & ; * ; & & ; & ; & * ; * ; q o o o X 9 % & ; & ",
"$ & & & & $ & & $ & & & & # & - # % o o o o X 9 % # & & & $ & & & $ & $ & $ & & & $ & $ & & & $ & & & & # % . X o o X 7 $ & & $ "
};
