/* XPM */
static char *a35decc6a6a9472eb53b90184ef09fbfNcWzbLADygBvDPp3[] = {
/* columns rows colors chars-per-pixel */
"64 64 104 2 ",
"   c #380025",
".  c #3E1627",
"X  c #3F1A26",
"o  c #421E27",
"O  c #452527",
"+  c #472A26",
"@  c #492B27",
"#  c #462628",
"$  c #472928",
"%  c #4A2D28",
"&  c #4D3327",
"*  c #4D3228",
"=  c #513727",
"-  c #533B26",
";  c #513629",
":  c #553C2A",
">  c #583F2A",
",  c #57402A",
"<  c #5A422A",
"1  c #5F482B",
"2  c #624C2C",
"3  c #66512C",
"4  c #6A552D",
"5  c #6E592E",
"6  c #715D2F",
"7  c #725D30",
"8  c #76652C",
"9  c #78672B",
"0  c #77692A",
"q  c #7B6C2C",
"w  c #7F702C",
"e  c #766130",
"r  c #796531",
"t  c #7D6A32",
"y  c #82742D",
"u  c #86792E",
"i  c #897B2E",
"p  c #806D33",
"a  c #847332",
"s  c #8B7D30",
"d  c #938433",
"f  c #988834",
"g  c #98873C",
"h  c #9C8C3B",
"j  c #9F903D",
"k  c #A08F3C",
"l  c #A3933E",
"z  c #A9963C",
"x  c #AD9A3D",
"c  c #B19E3E",
"v  c #B5A23E",
"b  c #B9A53F",
"n  c #BBA83F",
"m  c #A49440",
"M  c #A59440",
"N  c #A69540",
"B  c #A79741",
"V  c #A89640",
"C  c #AA9941",
"Z  c #AC9A41",
"A  c #AD9B41",
"S  c #B39F40",
"D  c #B6A340",
"F  c #BAA740",
"G  c #BBA940",
"H  c #BCA840",
"J  c #BDAA41",
"K  c #BDAA42",
"L  c #BFAB42",
"P  c #C0AC42",
"I  c #C0AD42",
"U  c #C2AD43",
"Y  c #C2AF42",
"T  c #C2AF43",
"R  c #C4AF44",
"E  c #C5B144",
"W  c #C5B045",
"Q  c #C6B145",
"!  c #C5B146",
"~  c #C8B346",
"^  c #CAB547",
"/  c #C7B348",
"(  c #CBB648",
")  c #CBB649",
"_  c #CFB949",
"`  c #D1BB47",
"'  c #D0BB49",
"]  c #D3BC49",
"[  c #D3BD4A",
"{  c #D4BD49",
"}  c #D5BF4B",
"|  c #D6BF4A",
" . c #D5C04A",
".. c #D7C14C",
"X. c #D8C34B",
"o. c #DAC34C",
"O. c #DBC34C",
"+. c #DBC54C",
"@. c #DCC44C",
"#. c #DCC64D",
"$. c #DEC84D",
"%. c #DEC84E",
"&. c #E0C74E",
"*. c #E1CA4E",
/* pixels */
": : : : : > $ 5 D E %.O.C l C m u y u y : : % 3 v E  .#.#.O.#. .V l V l m l u q ; 2 v H v H  .#.#.} U v 1 * : < a i u u u u u y ",
": : : : : > % 3 h c E E k h h g y y q q : : % 3 x E O.O.#...} ( V l m m V l u y = 2 v P R E [ O.#.[ v z < : : : q q q q q q q 0 ",
": : : : : : : > ; 3 u s u u i u s w , : : , % 4 v U } #.*. .A l z m m V C l u y & 4 c U } #.O.#.*.} i q : * : : : : : : - : : : ",
", , , : : : : : % : 8 9 q 9 q q q 8 : * : , * 4 x U  .[ _ / m j m m m l j h u w - 4 c U } #.O.[ [ E d u 4 1 : : : ; - : < > < : ",
"$ $ $ % : > : : > > > > : : : : : : : > : , % 4 b E #.O.C l C C C C m m u u u y = 4 c U } +.#.} C l M m u q < : , : : : % % % @ ",
"e 7 7 7 , > > : : : : ; : ; : - : ; : : : : * 2 h x ^ R h g h h h h h h y w q q * 4 c H  .@.@.} C h z l u y : : : : > < 6 6 9 6 ",
"D b F x ; @ > : : : : : < : : : > : > : : : : : - < y u u u u u u u u u u y , : % 4 v E  .+.%. .C l m l u y , : : > o < v n b c ",
"R U E D e 4 , : : : : : : : : : : > : : : : : : * < q q q w q q q q q q q q : : * 2 z v } X.} ( C l l h u q , : : , 4 t v H R b ",
"#.O.#.} U c 2 % < : : : : : : : : : : : : : : : : : : : : * : : : : : : : : : : : , X 5 ..#.m l C k u y u y > : ; 2 D H b G ..} ",
"O.O.#.} G x 3 > : : : : : : > : : : > : > > : : : : : : : : : : : : : : : : : : : : $ 4 E ( l g m g u y q q > : ; 2 v H G E O.O.",
"#.O.#. .V h u q < ; : : : : * % * % * * * * * * : : : : : : : : : : : : : : : : : : ; < w u y y u u u y > ; : > * 2 v U ..#.#.} ",
"_ _ [ ^ C k s y < : < : : , 6 7 5 7 7 6 7 5 7 7 , * > : : : : : : : : : , : : : : : : 1 q w q q q q q q > : : : * 2 v H ..O.O.} ",
"m l l l V l u q < ; , , o 2 v H F F D b G D H S 2 % , : : : : : : : > : % % % % * % % % $ % : : * : : ; : : : : & 3 c U } #.#.X.",
"m m m l k g u q < : : < 4 t D H G L U U L H E D 3 * , : : : : : : : , , 7 7 7 7 7 7 8 5 6 5 , : : : : : : : : > * 2 c n } ..[ ( ",
"m m V l u y u y , > % 5 c H v F ..#.#.O.#.#.#.} 3 o 1 : : : : : : : O , D G D D F F F D G c 1 # : : : : : : : : * 2 b E #...S h ",
"h h l g u q y 9 , > % 4 v U H R O.#...O.[ _ } / 7 : < : : : : > : > 4 r D H R R H L H L H x 5 , , : : : : : : > - 2 h v ^ E l g ",
"i i u u i y , = : < $ 5 c R X.#.X.O.&.X.z m M l i q < ; : : : > * 3 D F D D ..O.#.#.#.} C h s q < ; : : : : : : : : ; 2 y i i u ",
"q q q q y 9 > ; > < $ 5 c P [ } O.X.} ( z m M h i q < : : : : , * 3 b U L R O.O.' ' } ( C h s w 2 ; < : < < < < < < ; : 8 q q 9 ",
": , < < > : : > : < $ 4 D R b U O.O.V V M z V m s q , ; , : > > * 4 D G ..#.%.O.A M m z C h s q < ; > : # # O O O $ : > < < > : ",
"< : < : , > : : : < % 4 k z v b ' ^ l m M M h g p 8 , : > : : > * 4 D F #..._ ( M l m m m l s w < : < < 7 e e 8 e 7 < : : ; ; = ",
"# # # # O @ : : : : : < * 4 b b M M V m m l s y < : < : : : : < % 4 F E O. .C m z M m m C m s q 1 : . , v F v c D z , ; > : > : ",
"8 e e 8 8 6 < > < , , < # 2 c F l M M l h h u q : - > : : : : : * 3 z x O.} z j M M m m h g u q , > 7 t G H R E ~ H 2 : > : , : ",
"F D v v H c > o * @ @ = * 4 F H m C C l u y u y < : < : : : : : : , ; 4 #.#.V z m z V l s y u u : 2 v H D F }  .#._ > @ > - * + ",
"H F R U U v e 4 6 6 6 5 = 2 z x h h h h y y q 9 : ; > : : : : : : > % 1 E ( m l h h l g u w w t ; 3 v H U R O.#.#.[ 7 2 > : 5 5 ",
"D H O.} b b b F v v H x < % : < u u u u u y , : > : : : : : : : : > > < a s m V s u u u i y : < & 3 c U } #.#.#.&.} A h : 2 c D ",
"U U #.O.U G U H U H H x 4 < - : q w q q q q , : > > > : > : : : : : : , 0 w h h q q q q y q < : * 4 c U  .#.} [ } _ A k > 1 D F ",
" .#.O.O.O.#.O.O.%.[ C h s q < : : : - : : : * * % * % * * * : : : : : : : : : : : : : : : : : , % 4 c L #.X.C m l m z h > < c F ",
"#.#. .#.O.O.O.X. .( C h s q < ; : : : : : : 5 5 6 4 6 6 6 4 : : : : : : : : : : : : : : : : : , % 4 c U ' _ m m l l l g : 2 c b ",
"O.O.#.O.#.#.&.} x h x h s w < : : : : : # 1 v G F b F v H x 1 @ > : : : : : % * % * * % % ; : < % 3 b H z m l l V l u q ; 2 c b ",
"O.O.X.X.} ' } ( C j l g y 9 : : , : : , 3 8 D H P P U H E v 4 : > : : : : , 4 5 5 5 5 5 6 4 , , ; 3 z z h l l l k h u y = 2 c F ",
"#.#.#.} z l M M m l u q , ; : : : : # 1 D G b G } O.#.O.*.} i 9 , ; > : # , D H G F F v H c >   % % * < a i M z u y u u ; 2 c H ",
"[  .} ( l l k h m g i q , : : : : : 4 r D F H R X.X.[ ' X.~ f y , ; > , 4 e D L H U H U R D p 6 r 7 > , q q g g y q q q ; 2 c b ",
"P H m z C l s u u u u y , ; : > ; 2 v F D G ..O.%. .C j m M V h 2 ; : 2 S F D H  .#. ...#. .%. .%.^ < + > : : : : : : : % 3 D H ",
"v x h g h g q q q q w 8 > : : > ; 2 D G G U ..O. ._ m l M l l g , > ; 2 D H H R ..#.#... .#.[ [ X./ 4 : > : : ; ; : : : * 1 z x ",
"u i i u , > , > , > : : : : : : ; 2 v G #.#.*.O.x l V m m l u y , : ; 2 D F O.O.+.#.#.#.%...A j C l u w , : > > > : > : : : : : ",
"q q q 9 ; ; ; : : : : ; : > : > ; 2 v G [ _ ( R m j m m m h u q < > ; 2 c F O.O.#. ._ _ [ ( C j m h s w , ; : : : : : : : : ; & ",
": > : : , > > > : : : : : : : > ; 2 H U U F s s V B B m A M s y , ; ; 2 F R ..#.*.%.C l B m m z C l u w , : : : : : : : : : , : ",
", , , , < , : : : : : : : : : > ; 2 z x z z q q h h h h h s a 8 , : : 2 z z [ [ _ / l j l j m l j g u w > : : : : : : : : : : : ",
"# # $ $ # $ : : : : : : : : : : : : % % @ * : 1 u i i y < : , : : : : : : 2 F H C C B B C B C l i y u y , ; > : : : > : : : : - ",
"8 e e e e 7 , : : : : : : > , < , < 5 6 8 4 : 2 8 q q 0 : * : ; : : : : % 1 x x h h h j h j l g u w w q > : : : : > < < , , , : ",
"D v v c F z < % , : : : : : % % O < c b b x : $ : : : , : , > : : : : : : < u i s i i i u u u u i w , : > : : : : : $ % % $ % $ ",
"E U E U R D 4 < < : : > > < 4 7 4 r U R R F 7 4 2 1 : ; : : : > : : > , : 1 q w q q q q q q q q w r > ; : : : : > , 5 7 7 5 7 4 ",
"X.O.O.#.#...i q < ; > , o 2 x b c F } O.O.} H c i 0 < : : : : : : : % % % * * * * & : , : , , : : : : : : : : : # , D D v v D x ",
"O.O._ _ } ^ i q 2 ; : < 4 t H E U ~ X.#.#.O.G c d a < ; , : : > : , 7 7 6 5 5 5 5 4 : : * : : : : : : : : : : > 4 r H R H R / H ",
"#.} m l l l u q , : % 6 v U } #...O.O.O.O.} m l C h , * > : > , # 2 D F b b b b G x 1 * , : : : : : : : : > ; 2 v H  .X.#.#.+.} ",
"O...z l z h s q 3 < @ 5 v U  .+.#.#.O.O.#.} V l C h 3 : : : : , 2 r F U U U U L E b 3 , , : : : : : : : : : ; < D U X.#.#.} #.} ",
"#...m l V l u y u y & 4 c U } #.[ #.X.#.#.O.V m C h i q < : * 3 D P O.O. .X.O.+.%.[ i q 1 * : : : : : : : > ; < D F ..#.O.O.#.} ",
"} _ m l l h u w w q & 4 v H } #.X.#.} } } ' m l z k i w < : * 3 c R  .#.#.#.#. . .^ d y 3 , , : : : : : : > ; 2 D H  .#. .X.X.^ ",
"m V V l u y u w , > $ 5 v U O.#.#.} l l m m V M m l i y , > * 3 c U  .O.#.#.#.#.m m m l s q < ; : : > : : > * 2 D E #.#.*.} S h ",
"h h l h u w y 9 , > * 4 z D ' } X.} z m m l m l l g y 9 , > * 3 c U +.+._ [ } _ m l A h i q 1 ; , : : : : : ; < z D _ ' ' ^ z g ",
"u u u u s y , : : : : > * 4 F E #.O.x C V V C l s q 1 * > , % 3 v E #. .y y l C V l m l i q < : > : : : : : : : : < u i u s s y ",
"q q q q q 8 > * > > : > % 2 l x ( ~ h h h h h h u 9 1 * > , * 2 h c  .[ f d l l m l l h i q < ; > : : : > > , , : , q q q q w q ",
"> > : : : : : > : : : > > , : 2 a i i i u i u u i y , : < > : , % 6 *.*.%.#.A m A M u y i w 1 ; > : : : : : $ # $ $ $ + % % @ O ",
": : ; : : : : : : > , < , < : , q q q q q q q q w 9 , ; > : : > + 4 E ^ ( ( h h h h y y a 8 , ; : : : : , , 6 7 8 7 8 6 6 6 8 6 ",
"* : : : : : : : : ; # # # # % % % * < : < , , , , , : : : : : : : , < 2 u i i u i u i y < : > : : : : : o : x F D v v v D v D c ",
"1 1 : : : : : > > 2 6 6 6 6 6 6 7 5 : : ; : = : : * : : : : : : : : @ ; 8 0 q q 9 q q 9 > ; : : : > : > 7 e F H R R E U U E U F ",
"y q : : : : - <   2 x v c c c c v z : - > : : , > , : : : : : : : : < < 2 < > < : , , : : : : : : , ; 2 c F v F [ ..X.} @.@.#.} ",
"u y : : : : - 1 2 p U E U R R U E b 2 < : : : : : , , , < < , , < < < , : : : ; : : : : : : : > : > * 3 D H H U #.#.O.X.} ' } ' ",
"y y : : : , @ 4 x U } X.} X.X.X.#.} y q > : : : : ; @ @ @ @ @ @ $ % @ % % + : > , : : : : : : : : > * 2 D U X.#.O.O.#.X.A l A l ",
"u q : : > , @ 4 v E  .#.@.#.X.X. .^ i w : : : : > < 5 6 6 6 6 6 6 6 6 6 6 7 > : : : : : : > > , , < : 3 l x [ O. .+.[ ( m k l h ",
"u q : : : < @ 4 x U } #.X.X.&.X.A l u y : : : , . 2 c n b v v b v v v v b c : * : : : : : : * % * % % ; : 2 x H #...m l V z M M ",
"y y : : : < @ 4 x E } #.X.X.} ( l h u q , : - < 2 t v L n E U n E U U U U G 3 < : : : : : - 4 4 5 4 4 4 * , D U [ ' z M M l h h ",
"u y : : : < @ 4 v E O.&.#.O.C M z l u y : : & 3 v U b U +.$.@.$.+.@.@.@.*. .s y 1 - - 1 $ 4 c R F F U c , 2 X.#.C m z V m l s y ",
"q 9 = = & - + 3 z b ( ( { ~ h g h f y 0 - - + 2 z v z b ( ` ( ` ` ^ [ ( } ^ y 0 , & & - # 2 z v x c v z - 1 ^ ( l g h h h g y q "
};
