/* XPM */
static char *d8d74cd3ce164717eb820e7ad1462e56ya7956nX9X4tNnre[] = {
/* columns rows colors chars-per-pixel */
"64 64 117 2 ",
"   c #02BECA",
".  c #08BFCB",
"X  c #17C0CC",
"o  c #00C6D3",
"O  c #00CAD7",
"+  c #0ACAD6",
"@  c #01CCD9",
"#  c #0BCDD9",
"$  c #11CBD7",
"%  c #1ACAD6",
"&  c #14CEDA",
"*  c #1BCEDA",
"=  c #01D0DC",
"-  c #0BD0DC",
";  c #14D1DD",
":  c #1DD1DC",
">  c #26C3CD",
",  c #35C3CE",
"<  c #2BCDD7",
"1  c #23CFDA",
"2  c #2BCFDB",
"3  c #36CFDB",
"4  c #24D1DC",
"5  c #2CD1DD",
"6  c #33D2DE",
"7  c #3BD2DD",
"8  c #24D3E0",
"9  c #2BD4E0",
"0  c #34D5E0",
"q  c #3CD6E1",
"w  c #40CED8",
"e  c #43D3DE",
"r  c #4BD4DF",
"t  c #51D5DF",
"y  c #44D6E0",
"u  c #4AD6E1",
"i  c #51D6E0",
"p  c #58D6E0",
"a  c #62DAE3",
"s  c #6DDDE5",
"d  c #6EDFE8",
"f  c #70DFE8",
"g  c #5EE6EF",
"h  c #5DE7F1",
"j  c #5FE8F2",
"k  c #6CE4ED",
"l  c #72E0E8",
"z  c #79E0E8",
"x  c #65E7F0",
"c  c #69E7F1",
"v  c #65E9F2",
"b  c #6DEBF4",
"n  c #6FEFF8",
"m  c #74EEF6",
"M  c #7AEEF6",
"N  c #75EFF8",
"B  c #79EFF8",
"V  c #77F0F7",
"C  c #7BF0F7",
"Z  c #76F0F8",
"A  c #75F3FC",
"S  c #76F3FC",
"D  c #79F0F8",
"F  c #7BF3FB",
"G  c #7EF3FA",
"H  c #7FF3FA",
"J  c #7BF4FC",
"K  c #7EF6FE",
"L  c #9CE4E8",
"P  c #9FE5E9",
"I  c #9FE5EA",
"U  c #80EFF6",
"Y  c #80EFF8",
"T  c #95EDF3",
"R  c #9BEEF4",
"E  c #82F0F7",
"W  c #83F1F9",
"Q  c #80F3FA",
"!  c #83F2FA",
"~  c #86F0F8",
"^  c #81F4FC",
"/  c #89F4FB",
"(  c #9EF0F6",
")  c #9EF2F8",
"_  c #A7E7EB",
"`  c #A8E8EA",
"'  c #A1EEF3",
"]  c #A4F0F3",
"[  c #A1F1F7",
"{  c #A5F2F7",
"}  c #A4F3F7",
"|  c #ABF2F6",
" . c #AEF2F5",
".. c #ACF3F7",
"X. c #A3F4FA",
"o. c #A5F4F9",
"O. c #A9F3F8",
"+. c #ABF4F9",
"@. c #ABF5F9",
"#. c #A9F6FB",
"$. c #AAF7FB",
"%. c #ADF5F9",
"&. c #ACF5FA",
"*. c #AEF5FA",
"=. c #AFF5FA",
"-. c #ACF8FB",
";. c #A9F8FC",
":. c #A8F8FD",
">. c #AFF8FE",
",. c #B0F2F4",
"<. c #B0F4F6",
"1. c #B0F6FA",
"2. c #B1F6FA",
"3. c #B3F7FA",
"4. c #B2F6FB",
"5. c #B4F8FC",
"6. c #B8FAFE",
/* pixels */
"s k f f l l l k d f l l l k d f l z ` ` ` P l l l l l l l l f l l l l l z k .     , L _ _ P d f l d l l f f l l l d X X   > s l ",
"M K F G J F J J J F J F J J J G J ! ;.;.5.>.K F J J A A J J J A A V A V A n ; : @ q :.5.>.:.K V K F J J F F J A G n : ; = 9 Z J ",
"' X.M m M m M m m M m m m m m M C b 7 t O.O.F M M C F M F m B m 0 4 5 5 5 6 b m b M =.=.~ G B F F F N m m F F m 6 4 O O o 1 m F ",
",.#.M F m F V F F M F V F F V V M b O * #.=.m m V V m m m m m b # O @ O O & m F V C | [ m b m m m m m B m M m b @ O : 4 & 5 b m ",
" .#.m F m F M m m F F m M M V V M m @ 7 | =.C V G m 5 1 5 4 5 4 & # # # + # * 1 4 4 7 e 6 5 5 5 1 q m C G m 5 5 # 5 m m m b 6 1 ",
" .#.F V F m F m F M m F m F F N F m @ 2 #.#.V m V x : O # @ @ @ & & & : & & # @ @ @ O O O @ O @ O * n m m b # O O 1 m m m n * o ",
" .-.F C m M V F m M B V V V m B Z b @ 4 M C 5 4 : 6 b m b m n m b m [ { [ { [ ) C v 1 O # @ @ # @ # * 1 : : @ @ @ @ : : 4 4 & + ",
" .#.M m G m F m m F B N F M F m C m @ : m m @ O O 6 V G F M M C V ! 2.5.=.2.2.#.G b 2 & 1 * * 4 * * & & & % : * * * & $ @ O # + ",
" .;.C m F V m M F M B G M J m F F m # + 5 5 O 5 v E { =.#.#.=.#.#.#.=.} 7 7 7 7 & y R #.{ { { { [ { #.} { #.{ [ { { #.R 1 O * O ",
" .o.F F m V G F F m B m m N m m M n # + @ # O 5 n ! =.2.=.=.=.=.=.=.2.{ @ @ O @ O 7 ..5.=.=.=.=.2.2.2.=.2.2.=.=.2.<.5.{ 5 @ * O ",
" .2.#.{ F m F m F m G m 0 & 1 : : & O @ @ @ O 5 n E  .#.C U ! M G ! ~ F m x @ 5 T { =.#.! M ! E E U F U U ! G ! ! U ! M # * b b ",
"' #.=.=.M m V m m m m b 4 @ * * * * * 1 * * @ 5 v E =.#.F N V V m V V m J m @ 3 ..5.=.{ F m M m N Z m m m m m m m m m b & 2 m G ",
"< i <.=.F m G m 5 & = 0 v m [ { [ O.[ { #.R # + @ u #.#.M m F M M F F m F m @ 5 { =.! G B B F M M B F N 5 * 4 : & ; * * @ & m B ",
"o 6 #.} Z m C b 5 & + 7 N / =.2.2.=.-.2.2.{ 5 1 O r | #.M M F m Z M V M M m @ 5 #.$.m m M m m m N N B b * & * * 1 1 & * & 6 m B ",
"+ 6 ~ M 4 4 @ 5 j F ( [ o.o.2.=.E C E M 5 5 v b O e =.5.#.X.F Z F F M m F m @ 2 ..=.G B ! n 6 : 4 4 & 8 b b v m ) [ X.' { R M m ",
"o 4 n b # & # 7 m / =.5.=.=.=.o.V Z V v @ 4 F V # r [ =.=.=.M Z M m V F B m @ 2 [ #.m b F b 1 O * * & 5 M ! F ! 2.5.2.2.5.=.Y m ",
"+ & 5 y v m R X.#.X.U G E ! ! U F m 6 r R [ o.{ { R e i #.=.M m m F F m J m @ * Y U 0 5 0 1 @ * v m R ) { o.#.#.=.#.E M ! G M m ",
"+ # O 2 m ! =.2.=.o.M m Z Z Z m M b O 2 -.5.2.=.5.{ O # #.=.F V M M m F N m * * b v @ O @ * & q m / 2.5.=.=.=.=.=.#.V m V m M M ",
"+ # O 1 m ! 2.=.~ G G M V F M F G m @ 6 #.=.! M ~ M # 7 #.=.V m F m B B F m @ O 0 6 @ 6 x m T ' [ o.2.#.! ! ! ! E ! F V F M F m ",
"% * 1 q b M } X.m m m m m m m V m b @ 7 #.#.V m V m @ 6 { =.C F M F N B N m 4 * @ # O 6 m / 2.5.=.=.=.o.m n m m m m m C M m M m ",
"o 5 [ T : 8 5 e m ! F F M F F m 5 * @ * M ! m M G m O 7 #.5.o.X.M V F M G N b b m v @ 5 b G O...~ F Y ! M F M M M M G m m m F m ",
"% r 2.O.* * @ 4 b M m m m m F m * & 1 6 m C F m C m # 7 [ ..2.=.G m F N B N J B J m @ 6 n ! #.#.F m Z V N m F V V F m M F M M m ",
"' { =.| { { #.R 7 : 6 5 5 6 2 6 b M R { 2.o.M m C m m k 7 t | >.F V M N A N B B B m @ 2 m ! O.=.C N F Z F F m V V F F m F m q 1 ",
",.3.=.=.2.2.5.{ 5 O & O O O O 1 m ~ 5.2.=.#.F C F V G m @ 5 O.>.M m M F B B m m B b @ 6 n M =.2.E V M N M m F M F m M m F m * o ",
" .#.E ! B ~ =.O.M h 4 & @ 3 R { #.#.=.#.! G M m F m G m @ 7 #.=.M Z B V F m 5 1 1 5 n b - e #.2.#.X.B N F V F m F m m m G m 1 o ",
" .#.m m m G =.#.! b 1 + O 6 #.3.2.2.2.#.V V m F F m G b @ 7 | -.V Z M B F m # @ O 1 F m @ 6 } 3.=.#.G V M M m M m M M m G m 4 O ",
" .#.F M N M ~ M 0 4 @ 5 b m G ! U G U E M N V M F m F m @ 7 O.-.F N F m 5 2 @ 2 ( { #.[ | R e u ..#.M m F m m F F M F m 6 6 b m ",
" .#.F Z B m F c & O @ 6 M G m V N V V V F m F m M m M b @ 7  .=.M m B b & # @ 6 O.5.=.=.3.X.O & #.=.F V B M F B m m F n @ * m M ",
" .#.m V C m B m 4 & O e { #.M m F m F m B F B F M m F m @ 3 ,.#.6 ; ; 6 R } } X.! C ! G ! M @ 3  .2.=.o.G m B N F m 5 * O 4 m F ",
" .#.F m F V G b 4 & O r =.=.F V F M V B V m B m F m F b @ 3 #.[ 1 O @ 6 =.=.2.#.F m m m F n @ 7 [ =.=.#.B m F M V m & # O 5 m m ",
"M ! C F M V G m * $ O 7 #.#.M V m F F B F F B F G b 6 1 # & 7 7 @ 5 ( { =.2.~ F m M F m M m m v 7 7 7 e m F m F F m & O # # 5 2 ",
"k F m M V m F b 4 & O e | #.M m M N m m m M m m F b & O 1 & @ @ @ 7 =.2.=.#.m m F m M F V V ! m ; O O : m F M B m m 1 # * # O O ",
"M J B F B B B m @ 7 R #.=.=.G Z G m 4 2 : : 5 4 5 4 & & O @ O 5 T { =.#.~ G B B F m V m M V B m m c @ # m F m m C m b x # O ; $ ",
"b V M B N N M m @ q =.=.=.;.M N B b & # # @ O @ @ @ # # 1 5 O 7 #.5.=.o.V V m F V C m F V m M m G m 1 5 m F M F M F G m 4 @ & + ",
"< 5 & 0 B F B m * @ 6 7 e 7 4 : : 9 v b R ( b b m c @ 5 T R b b U ! ~ ~ M F F m F M F F G B F n ; 6 T [ { { M F V m m m m x 4 O ",
"% * & 3 b m N b 1 @ * & @ @ % 4 & 6 F ^ 3.=.! N F m @ 7 =.3.G V m N m n m V m m m m m m m m ! M * e 2.5.=.#.F m V F F m F m 5 + ",
"k m { R 5 7 F Z @ 7 R { o.' { [ { { #.} ! M B m 6 5 O 7 #.2.m m B M G F G F M F G m 6 6 @ y ) 2.{ { =.#.~ F F M V V C m 6 1 @ o ",
"M ! 2.#.@ # V m @ e =.6...5.2.5.2.=.2.#.N m G b @ O @ 7 { #.M m M m m m m m m m m v @ @ @ 7 { 2.2.=.=.o.V m M m V V Z b @ O 4 1 ",
"' X.~ m & # 5 6 @ 7 [ =.M ! Y M Y Y G ! M B F m * 5 b m ! ~ F m F m 0 5 6 5 5 6 5 q b F ( { =.=.~ G Y ~ F G M F F M F m O 6 R R ",
",.=.m b 1 # @ * @ e o.=.F m N N N N N m F m N n # 2 m F m m m m B b @ O O @ O O O 1 n ~ =.2.2.o.B n m N m B N N m m C m @ e 2.2.",
"U ! M B b b m c @ 7 #.2.B B M M B G M F M m G m * @ 0 2 6 7 6 6 6 5 & $ & & & & & : 5 6 e e r r 7 6 6 6 6 6 5 6 6 6 6 0 @ 7 { ,.",
"m V B m G G ! m @ 7 #.#.B N F m B m m F V N F b 1 @ @ O @ @ @ O O @ @ @ @ @ @ @ @ @ O @ O O O O O O @ @ O O @ O O @ O + O 7 [ 2.",
"m M m m m B F m # 5 G ~ M m F F F m J m F M F m * & @ 7 T [ R [ [ [ ( ( ( ( [ R ( T : # + 4 b b @ 6 T [ ( ( [ R 4 # @ 6 T [ 2.=.",
"m M F F B N M b # 1 n V N F M m m M m F m m M b 4 & @ y #.5.2.2.2.2.2.=.5.2.2.2.5.' 4 @ # 4 m B @ 7 =.5.5.2.2.=.1 # O 7 #.3.=.| ",
"m N N B F B G m * # : q m F m V m F V V F F F m @ 7 R } =.o.! G ! G G M Y M G M C C m b m x 9 2 O 6 #.=.! G M M * $ O 6 { =.! M ",
"m F B B m m B b : @ O 5 m F F B B m F M m m M m O e =.3.=.o.M m M m V m m G V m m F C m G b * O @ 7 | #.V m N m * & O 6 } =.F m ",
"M M J m 8 : 1 1 @ & O 6 m G F M F M F m 5 5 1 6 j F =.#.! M M B F F m F F m B m F m G m 0 4 @ 6 R ( E C M C F m & # O 6 o.3.}  .",
"m m B b @ @ @ @ + * O 5 m M m F m m m n @ @ O 5 m ~ ..o.F V F m m B F m m F V G M m G b * + O 7 #.=.F m F m m m : & @ 7 [ =.=. .",
"< 6 # q R [ [ R M g 1 @ 5 5 4 4 5 5 6 5 # * @ 7 ( =.2.#.M m G F F M m F m F V V C b 6 5 @ 5 j m =.#.M m F m 5 5 v v @ + 6 t | 5.",
"+ + O e  .5.2.#.! b 1 @ & + # @ @ O @ O # * @ 7 { 2.=.{ G m M C m m F Z F m F M F b = @ @ 6 m ! =.O.F N M m @ # F M 1 * @ 3 { 2.",
"o 5 T ' 2.#.~ U G b & O @ : T T * @ & & O @ O 4 M / ~ ! F m F m F m C C m M F m G m : % @ 6 ( o.2.=.M N F n & 5 ( } ' T # @ e e ",
"O y =.2.#.X.V n F c 5 1 # 7 =.=.1 @ # # 4 1 % 5 b V n m m M m F F M m F m F V m m b ; % @ r ..5.=.o.M N F m @ 1 #.2.5.#.6 @ # O ",
"R { 2.=.u 7 6 5 @ 0 j m ( ] =.#.m v O * v v v v 5 4 ; q m F G M m F m F F m G m 6 5 @ 5 j m o.=.~ G B N F m @ 5 { 2.=.#.[ ' [ ' ",
" .2.2.' @ o # & @ e m / ;.3.-.{ F m & 5 G E G M 5 # + 5 b F m m m m m m m m m m ; # O 6 V ~ | o.m n M m m m # 1 { 2.#.=.2.2.5.2.",
"7 e t u & 6 v M R {  .[ E C E E 6 5 O 4 ( o.{ o.[ ] [ T 7 0 F F M F F F F m 7 6 @ $ O e [ -.2.=.~ V F F G m @ 1 =.3.3.=.M M ! M ",
"o O o @ @ 6 m ! =.3.2.#.F n V b @ O # 7 =.5.=.2.2.=.6.X.& @ m V m m m m M n @ O : 4 O e { -.| X.B m N N N m & 2 [ =.=.{ M m V m ",
"k v % 1 O 5 m Q #.=.=.o.F V F m & 6 T ] ..$.! C ~ M E M m x 0 5 6 6 5 q F m # 2 R T @ @ e r r r 0 5 0 5 5 5 @ @ e y r r F F M M ",
"C m & * # 6 m F o.3.=.o.C m Q m @ 7 2.5.3.O.V m V m V m G m * o @ @ O & m m @ 2 3.O.* O O O O O O O @ O @ O * & O O O @ n M m m ",
"m m b x b v 6 7 7 a ..3.;.( q 5 @ 6 | #.E ! C F F N F M V m b b V v & $ 3 0 @ 3 | #.b b m v 1 # @ 2 b b n m R ] { R 4 * 5 e m M ",
"M G C F G m & @ O 7 { =.2.' & @ @ 7 #.=.V V C V m F m F m F F G F m & @ @ @ @ 5 [ =.C m F m 5 # @ 5 C G m G 2.3.5.| 2 @ @ & m M ",
"' #.#.O.#.o.[ ] { T r 6 7 y n b @ 6 | ..M m F C B M F m F m M m N m m x & & @ 2 $.=.F m 4 7 R { [ X.} #.#.#.=.| ~ M b b m b 6 1 ",
" .2. .2.=.=.3.-.5.( # O O @ M m @ 6 O.;.F F m m F m m F m F F m G N G m # # @ 5 o.o.G b @ 6 o.6.2.=.=.2.2.=.=.#.F V C F F m * O ",
"..o.E E E E M ~ 2.=.[ [ [ [ #.[ $ 6 #.#.B M m M F m M N m M B m m B M N b b b c e e ; e R { O.#.! M E E C E E C M m F b 6 1 * + ",
"..=.K m F F V F =.2.5.5.5.2.5.#.: 6 =.=.F F F F F F F G F F F F F F F G F F K C = @ @ e =.5.3.$.G Z F F V F F V F F J V - @ - # "
};
