/* XPM */
static char *_d72edee5d344910b7657966984fa90foUCx6pwIGNHTaH6M[] = {
/* columns rows colors chars-per-pixel */
"64 64 165 2 ",
"   c #292729",
".  c #2D2D2E",
"X  c #302E2F",
"o  c #2C3E25",
"O  c #2F342E",
"+  c #2E392B",
"@  c #33362F",
"#  c #313A2F",
"$  c #322535",
"%  c #322C33",
"&  c #37243A",
"*  c #39233D",
"=  c #362C39",
"-  c #3A2D3D",
";  c #353535",
":  c #363A35",
">  c #393D37",
",  c #373238",
"<  c #3B343C",
"1  c #373838",
"2  c #3B3B3B",
"3  c #3E7F17",
"4  c #3E7E1C",
"5  c #354C2F",
"6  c #38582C",
"7  c #364433",
"8  c #394436",
"9  c #3A4B35",
"0  c #3D433B",
"q  c #3E4B3A",
"w  c #3D5535",
"e  c #3E5B33",
"r  c #3F5339",
"t  c #3F5838",
"y  c #3F7D20",
"u  c #3E6331",
"i  c #404B3D",
"p  c #405B36",
"a  c #41543B",
"s  c #415A39",
"d  c #427D25",
"f  c #457E2A",
"g  c #436037",
"h  c #45603D",
"j  c #477C31",
"k  c #497E31",
"l  c #4C7D3A",
"z  c #3D2542",
"x  c #3E2A43",
"c  c #3E3440",
"v  c #3F3A40",
"b  c #413544",
"n  c #413D42",
"m  c #473B4A",
"M  c #493B4C",
"N  c #434343",
"B  c #454B43",
"V  c #484847",
"C  c #49454A",
"Z  c #4B4B4B",
"A  c #465143",
"S  c #485146",
"D  c #475E41",
"F  c #4B5E44",
"G  c #4D524C",
"H  c #50534E",
"J  c #505A4D",
"K  c #4F4E50",
"L  c #514D51",
"P  c #545454",
"I  c #565A55",
"U  c #585B57",
"Y  c #575058",
"T  c #5A565B",
"R  c #5C5C5C",
"E  c #4B6345",
"W  c #576255",
"Q  c #596256",
"!  c #5B6E56",
"~  c #5F615E",
"^  c #5E6D59",
"/  c #5B7254",
"(  c #5E7159",
")  c #60645F",
"_  c #616A5E",
"`  c #5F5F60",
"'  c #625D63",
"]  c #675B69",
"[  c #636363",
"{  c #656A64",
"}  c #686A67",
"|  c #676368",
" . c #686569",
".. c #6C6C6C",
"X. c #697464",
"o. c #667960",
"O. c #6A7D63",
"+. c #6E726C",
"@. c #6C7B69",
"#. c #71766F",
"$. c #717A6F",
"%. c #6F6F70",
"&. c #726E72",
"*. c #747474",
"=. c #767975",
"-. c #787D77",
";. c #777478",
":. c #79757A",
">. c #7C7C7C",
",. c #3D8E01",
"<. c #3D9200",
"1. c #3E8113",
"2. c #408D07",
"3. c #418E0B",
"4. c #419303",
"5. c #44940C",
"6. c #438E13",
"7. c #43851E",
"8. c #458D1C",
"9. c #449215",
"0. c #46921A",
"q. c #46901C",
"w. c #48941B",
"e. c #48931D",
"r. c #48941D",
"t. c #438224",
"y. c #448126",
"u. c #468D22",
"i. c #478D24",
"p. c #498E25",
"a. c #458329",
"s. c #47822F",
"d. c #49852E",
"f. c #4B8E2B",
"g. c #479021",
"h. c #499223",
"j. c #4A9324",
"k. c #4D922B",
"l. c #4D922C",
"z. c #4B8234",
"x. c #4F8E32",
"c. c #4F8D34",
"v. c #4E833A",
"b. c #508E35",
"n. c #52863D",
"m. c #538B3C",
"M. c #4F9131",
"N. c #509133",
"B. c #519038",
"V. c #548743",
"C. c #558D42",
"Z. c #578944",
"A. c #588B46",
"S. c #5C874C",
"D. c #5C8B4A",
"F. c #6F8468",
"G. c #72826D",
"H. c #748170",
"J. c #7A8077",
"K. c #7B807A",
"L. c #7E807E",
"P. c #80807F",
"I. c #7F7C80",
"U. c #807D81",
"Y. c #818181",
/* pixels */
"% 7 5.M.L.I.=.*.| [ [ [ [ [ [ ) 2 n  .| 1 N L.:.2 . 0 2 < i <.w.K.U.L.>.:.*.- b ;.:.;.*. .[ 2 N >.Y.=.;.| [ | | { [ c * - - - - ",
"Z J 3.c.>.>.=.*.[ [ [ [ [ [ [ [ 2 i T I 1 N >.:.I V 2 0 1 i V.D.:.>.>.:.*...p s o.O.*.#.~ P 2 N :.L.#.%.[ ) I T U U p p s p s t ",
"*.@.4.N.L.>.*.*.| ) [ [ [ [ [ ` 1 < 2 2 1 N >.P.:...N 2 & m >.P.=.*.=.*.| { e.9.4.k.;.&.b = . 2 &.*.[ [ } [ 0 1 * 0 q.5.4.<.<.,.",
"*.*.4 l >.>.;.*.[ [ | [ [ [ [ [ Z V 2 2 1 N *.*.:...n 2 e E ;.I.=.*.&...T U d y.y f O.o.u p H T *.*.[ ` T T 2 2 e u d s.Z.A.A.Z.",
";.*., N >.P.*.*.| ) [ [ [ [ [ [ [ ~ 2 2 < N [  .-.*.c 9 ,.j.#.*.=.*.| ` 0 1 < 2 - q 9.w.4.c.#.;.=.*.| ~ 2 1 < 8 8.u.. b #.;.;.*.",
"| [ 1 B >.>.=.*.[ [ [ [ [ [ [ ) [ ~ 2 2 1 0 P R | { 2 i n.D.*.*.*.+.[ ~ 2 1 2 2 < 0 y d 4.f.*.;.#...| R 2 2 V S 8.p.Z Y *.*.&.&.",
"1 1 = m >.U.=.&.[ ) [ [ [ [ ' [ [ ~ 1 1 2 2 2 1 1 < . N &.;.=.*.[ ` [ R 1 < 2 2 2 0 - B 4.l.#.*.[ ) | ) 2 0 ] [ 9.k.=.*.=.*.[ ` ",
"1 0 6 F >.>.=.*.} | [ [ [ [ [ [ | [ V N 2 2 2 2 1 i Z T *.=.&.%.[ [ [ [ V V 2 2 2 1 < 0 4 k *.*.[ ' [ R 2 0 ^ / t.z.*.*.#.%.[ [ ",
"< q 4.M.>.>.=.=.=.*.[ [ [ [ [ [ [ [ [ [ 2 1 2 2 ; Z >.Y.*.*.[ [ [ [ [ [ [ [ 1 1 1 1 2 0 % n *.=.[ ) [ ` v 8 6.6.; b *.*.[ [ [ [ ",
", q 5.c.>.I.=.;.=.&.[ [ [ [ [ [ [ [ [ ~ 2 2 2 v ; V >.I.=.*.[ ) [ [ [ [ [ ) V V V N 2 v 1 N &.*.[ )  .` 2 q 8.8.B V *.*.[ ) [ [ ",
"< q 4.c.>.U.L.>.;.&.[ [ [ [ [ [ [ [ | R 2 : 2 0 ; N >.>.*.*.[ [ [ [ [ [ [ [ | [ | [ < < 1 N &.*.[ ' [ ) x > q.h._ | *.*.[ [ [ [ ",
"< q 3.k.G.H.>.>.=.*.}  .[ [ [ [ [ [ [ ~ V V 2 v ; V >.>.=.&.| [ [ [ [ [ [ [ [ ) R I p a 1 N *.=.[ ) [ ) p p d d ) | *.*.[ [ [ ) ",
", 9 q.w.<.k.>.U.*.*.=.*.[ [ [ [ [ [ [ [ | [ 0 2 ; V >.I.=.&.| ~ [ [ ) [ [ [ { [ < 7 q.u.+ b *.=.| [ | _ e.8.< b [  .*.*.[ ) | ) ",
"N B y.a.6.M.F.H.=.;.*.*.[ [ [ [ [ [ [ [ [ ` v v ; V >.L.=.&.| [ [ [ [ [ [ [ R T < q 8.f.S P {  .R U R W 8.8.8 0 P R *.*. .| [ [ ",
"[ ` & 7 q.r.<.f.K.>.=.&.[ [ [ [ [ [ [ [ [ ~ 2 1 1 V >.I.*.*.[ [ [ [ [ [ [ ` 2 1 < q ,.u.=.&.0 ; 2 1 & 1 0.0.2 2 1 N *.=.*.*.| ) ",
"[ ` V A d a.3.b.-.I.=.*.[ [ ` [ [ [ [ [ [ ` V N 1 V >.>.=.*.} | [ [ [ ' [ R 2 2 < q m.D.=.%.N 1 2 q e p a.d 0 2 1 N ..*.*.*.| ) ",
"` [ | ~ < q 2.N.K.U.L.:.{ [ [ [ [ [ [ [ [ [ | [ ; N I.Y.U.>.;.*.| ) [ [ | [ v 2 1 C >.>.;...0 @ * 8 8.8.; = ; ; 1 N [  .*.#.| ) ",
"[ [ | ~ < q 7.z.*.>.L.>.| [ [ [ [ [ [ [ [ ) T U V Z ..=.=.;.*.*.[ [ [ [ R U 0 0 1 Z >.I.=.%.K N a g p.p.Z K Z Z 2 0 T R *.*.[ ' ",
"` [ [ R 0 2 & b T { >.>.[ [ [ [ [ [ [ [ | ` 2 2 [ ) 1 N [ } *.*.[ [ [ ~ - = = -   2 -.U.;.*.| ^ j.4.<.6.#.=.=.*.0 1 1 N *.*.[ ) ",
"[ [ [ ~ v 0 6 h | %.>.-.[ ~ [ [ [ [ [ [ [ [ 2 2 [ [ 1 2 P R *.*.[ ) [ ~ p e e s P R -.:.*.*.| ~ k z.D.S.=.;.*...n 2 1 N %.*.}  .",
"R [ | R < q 2.b.+.:.L.>.[ ~ [ [ [ [ [ [ | [ 2 n | ) 2 2 : N *.*.[ [ | _ g.q.5.j.J.>.P.>.=.*.} [ % 1 -.Y.>.>.[ ~ 0 2 < N *.=.=.*.",
"} } [ ) c q 2.M.=.:.L.-.[ [ [ [ ~ [ [ [ Q I 0 0 T I N 2 1 N &.*.[ [ T I 8.8.7.z.J.Y.>.:.*...R R P R >.U.>.:.| R 0 2 1 n } &.*.*.",
"*.*.| R < i 2.N.J.I.Y.-.| ) [ [ | [ ' ' < - - - - < 1 1 , N *.*.| [ 2 q 0.e.1 n :.>.=.*.| ~ 1 2 >.Y.>.L.:.=.| [ b 1 < i [  .*.;.",
"*.*.} [ < q 2.N.K.I.:.*.[ [ [ [ T U / / a w t p e a Z Z 1 N *.*.R P 2 8 d f 2 N >.>.*.*.| [ Z P >.U.>.:.*.+.[ R i 2 < 0 I R %.%.",
"*.=.;.#.c i 2.f.K.>.| [ | [ { [ 2 8 q.9.4.<.4.4.<.f.=.%.2 0 =.*.0 1 < - , ; . 2 :.Y.:.*.| { >.Y.>.>.=.*.[ ) [ ` < 1 2 2 1 n [ [ ",
" ...=...< q 6.c.K.>.[ R R T R U 2 q q.q.C.C.C.C.B.Z.*.%.2 0 *.&.i : w p Z P Z P ;.>.*.+.R ` *.=.>.:.*...[ [ | ~ Z N 2 2 < 0 T R ",
"@ N ;.*.* i ,.k.>.>.} R c = < < < q <.p.L.U.>.>.:.*. .R 2 N *.*.x q 6.k.K.U.Y.Y.:.=.[ R 1 1 . 2 *.*.[ [ [ [ [ [ | ) 2 2 2 1 2 1 ",
"N Z } | p p m.D.-.;.R I p e e t 2 i m.D.>.>.>.;... .R I 1 N %.+.a 6 8.l.K.>.*.*.} } } | P Z V P *.*.[ [ [ [ [ [ [ ` 2 2 V V 2 1 ",
"| [ & 8 <.k.>.P.=...c 5 q.9.9.q.; n >.U.=.*.=.*.v ; : 2 = n ' [ r.5.4.g.P.:.1 ; . 2 *.;.=.;.=.=.=.*.[ [ [ [ [ [ | [ < 2 | ' 0 1 ",
"T I p p d.V.-.I.=.+.b 5 u.q.a.f G P >.>.*.*.*...N : v 2 w s ^ ( a.a.m.D.L.:.V B Z P *.=.&.&.&.#.&.&.[ [ [ [ [ [ R T 2 i ! ! i < ",
"% 7 5.f.` | >.>.:.+.b 9 q.u.. c >.L.=.*.;.*.| R v > c w 9.4.<.,.@ c P.U.P.>.| | =.;.=.*.[ [ [ [ [ [ [ ' | ' ' ' < , < q 6.6.: = ",
"Z G 6.f.{ ..>.>.:.+.b 9 g.f.G P >.>.*.*.*.%.| R 0 2 < q z.b.C.Z.G P >.K.:.=.[ [ ..&.*.+.| ~ R R R R ^ ^ ^ ( ^ ! s w < 0 8.p.G C ",
"*.$.4.M.P.U.P.P.:.+.b 9 4.j.>.I.=.*.;.*.[ [ { ` i 1 = n R  .>.U.I.L.U.>.[ [ [ [ ` [ [ [ [ ~ 0 1 * 0 9.5.5.5.5.5.4.9.2 0 ,.j.*.*.",
"&.+.7.z.G.$.#.*.=...< q m.D.-.P.*.*.*.+.[ [ | ` b 2 w D | &.;.>.>.>.;.=.| [ [ [ [ [ [ ` [ ~ v 8 r e a.a.a.a.a.a.c.z.0 0 b.A.*.;.",
"[ R - q 5.q.= b *.*., V >.P.>.>.=.*.[ [ [ [ [ ` < i 2.N.J.>.=.*.;.=.[ [ ) [ [ [ [ [ [ [ { [ x 1 8.8.; % % % @ < ~ ~ & n &.=.*.*.",
"[ ` c q d d 6 s *.#.1 V >.P.>.>.=.&.[ [ [ ) [ ~ < q 5.N.-.I.*.=.*...[ [ [ [ [ [ [ [ [ ` R I s u u.f.G K P P Z L  .| e h *.=.*.*.",
"[ R 1 1 - i 5.l.=.&.1 N >.>.*.*.;.=.[ [ [ [ [ ~ b i 2.N.K.>.=.&.[ ~ [ [ [ [ [ [ [ [ [ ~ c 9 u.w.<.p.*.;.L.L.>.:.=.=.q.f.#.*.=.*.",
"' ) V V < i 4 k O.X.8 V >.I.*.*.&...[ [ [ [ [ ~ < i 2.N.-.>.=.*.} | [ [ [ [ [ [ [ [ { ~ v 5 8.j.m.S.=.:.>.>.} }  .{ 9.f.*.*.*.*.",
") [ [ ~ 1 : - 8 2.6.$ M >.P.*.*.[ [ [ [ [ [ | ~ < q 2.N.K.U.*.*.=.*.[ [ [ [ [ [ [ ` ] ` z 2 3.k.+.=.>.>.=.*.2 1 < q 3.f.*.;.=.*.",
"' [ | ) Z V < 8 n.n.6 E >.P.*.*.[ [ [ [ [ [ [ ~ c q 5.M.:.>.:.=.*...[ [ [ [ [ ` [ [ ( / a e d n.=.;.>.>.*...2 1 < q 6.f.+.&.*.*.",
") [ ) [ [ ~ 2 i ;.=.3.b.-.P.*.*.[ [ [ [ [ [ [ R c q 5.c.#.;.L.>.| [ [ [ [ [ | { [ _ g.9.9.p.o b -.>.*.*.[ [ N 2 < 8 5.k.)  .*.=.",
"' [ [ [ | R 2 N | X.4.b.>.I.*.*.[ [ [ [ ~ [ [ ` < q 3.c.*.;.I.>.| ) [ [ [ [ R R T W 8.9.7.j G L >.>.*.&.[ ` 2 2 N B t.k I R *.*.",
") [ [ ' | R 2 1 = a ,.B.-.P.=.*.[ [ [ [ | [ | ~ c q 4.M.+.;.>.>.[ [ [ [ [ ~ 1 1 < 0 q.i.: N -.Y.P.>.=.*.| ) 1 2 [ R 2 2 1 N &.=.",
"[ [ [ [ [ ~ V B < q 2.B.>.P.*.*.| [ [ [ R R [ ~ c q 3 l *.=.L.-.| ~ [ [ | [ V B < 9 8.f.1 C -.Y.>.>.*.%.[ ` N V [ [ 2 2 , N &.=.",
"[ [ [ [ [ [ | ~ c q 4.N.>.I.*.*.[ [ | ~ 1 2 | [ v 2 = Z *.:.U.>.[ ~ [ [ [ [ | ~ < 7 9.8.+ b :.Y.*.*.[ [ [ [ [ [ [ ` < < 1 N #.=.",
"R [ [ [ [ [ [ ~ b q 1.v.:.>.=.&.[ [ [ R 2 0 T I i 2 1 N #.;.G.G.{ | [ [ [ [ [ ` Z A x.v.S P -.U.=.&.[ [ [ [ [ [ [ [ p r ; N &.*.",
"[ [ [ [ [ [ { R N 1 & C >.L.=.*.[ [ [ ~ 2 < 1 1 1 2 1 B &.=.9.6.=.;.[ [ [ ' [ [ [ [ ' | >.Y.>.>.=.&.| ) [ [ [ [ | ~ q.8.> n *.;.",
"| | { [ [ [ | ~ 2 0 9 F -.U.=.*.{ | | ) N N B N N N < N  .X.g.p.X...[ [ [ [ [ [ [ [ [ | >.Y.>.>.=.*.[ [ [ [ [ [ [ _ e.8.> N ..*.",
"*.=.=.*.[ [ | ) x q ,.N.>.U.=.*.=.*.[ [ [ [ [ [ | R 2 > = 9 9.8.1 c [ | [ [ [ [ [ | ~ | >.>.*.=.*.*.[ ' [ [ [ [ ' _ w.8.0 n ) [ ",
"+.*.=.&.[ [ R U r e 3.B.K.I.*.*.*.*.[ [ [ [ [ ` [ ~ V N m a y.d w a R R [ [ [ [ [ | { ..I.>.&.+.;.*.[ [ [ [ ) [ | ) y.d : n ~ [ ",
"~ [ *.*.| ) x 8 8.w.<.M.L.>.' | *.*.[ [ [ [ [ [ [ [ [ [ | ) < > 8.8.: 0 ) [ | | ~ [ >.Y.Y.>.| [ =.*.[ [ [ [ [ [ | [ 1 2 1 2 [ [ ",
"~ | *.&.R I a e d z.d.Z.>.:./ ^ *.*. . .[ [ [ [ [ [ [ [ [ ) b 8 8.8.2 v ) [ R R } ..>.L.>.:.} | *...[ [ [ [ [ [ R I 2 0 2 N [ [ ",
"[ } -.*.< 9 w.q.@ b R } P.K.q.p.*.:.;.*.[ [ [ [ [ [ [ [ [ R v 9 u.t.2 i { [ . 2 :.Y.L.>.*.*.;.=.[ ' [ [ [ [ | [ 2 1 x < . < R [ ",
"T R ..| 2 8 a.k B L [ ..=.=.8.8.O.@.*.*.[ [ [ [ [ [ [ [ | ~ v 8 8.8.1 v T U H P >.P.>.-.=.&.*.&.[ [ ) [ [ ) R R N 0 t s H P | } ",
"1 2 2 2 - - . < R [ *.*. ._ j.9.9.f.*.&.[ ` [ [ [ [ [ ` [ ~ 2 9 8.8.2 2 < N >.L.>.L.;.;.=.*.[ [ [ [ | [ | [ 2 1 % 7 <.q.K.>.=.*.",
"1 1 2 2 e s Z T } %.*.*.R J a.t.5.f.=.=.} | [ [ [ [ ~ [ [ ~ b 8 8.8.0 < 1 N >.Y.>.:.&.#.*.#.[ ) [ ) ~ R R T 0 2 Z P m.D.-.>.*.*.",
"2 2 < i 3.b.-.U.>.>.>.%.i 1 2 i 8.c.-.>.=.*.[ [ [ [  .[  .) v 8 8.8.0 2 1 N >.>.;.=.| [ [ [ | [ ] T 1 O O ; X 2 :.L.L.L.=.=.=.*.",
"1 2 < q 2.N.K.U.K.:.=...b 1 - q 6.l.K.>.;.=.[ [ [ ) R R R U v 8 u.8.2 2 1 N >.>.*...[ [ [ [ ) ) ( ! P K Z P K P >.Y.:.;.*.&.*.&.",
"1 2 < q 2.l.-.>.=.&. .R 2 1 < q 6.c.U.U.>.>.[ [ | R 0 < 0 0 < 8 8.7.2 < < N >.>.[ ) [ [ [ ) ] [ u.l.>.I.>.U.>.L.L.>.| ) [ [ [ ' ",
"2 0 < q 2.b.>.>.;.#.[ R Z N 2 q 6.f.G.G.P.>.} |  .R 0 ; < 2 < i 8.8.i < 1 N >.>.} | [ [ [ ) ^ / 8.b.L.Y.>.>.>.>.:.=.[ [ [ [ [ ~ ",
"1 1 < i 4.l.-.P.*.&.| ) [ R < 9 q.9.5.f.>.P.;.#.} R N 1 0 2 < 8 8.8.: = 1 n U.Y.*.*.| [ ] _ k.5.<.k.K.>.=.*.*.*.[ [ [ [ [ [ [ [ ",
"N N 1 i 3 z.>.>.*.#.[ [  .) C i d t.4.f.-.>.;.*.[ R i 1 2 2 n B 8.u.G Z 1 i %.*.=.*.[ ) ^ / y.a.b.S.:.>.*.*.&.&.[ ~ [ [ [ [ R T ",
"[ ) 2 0 , Z >.U.=.=.} [ | [ | [ < q 9.N.P.P.P.>...` n 2 1 N [ { 6.l.P.>.i 2 1 i *.=. ._ j.8.> n >.Y.=.:.=.=.{ | { | | [ | ) i , ",
"T T 1 , % 0 %.*... .T U R U T I < 7 1.d #.*.*.%.R P 1 , ; 2 T Q 3 a.*...< ; % < } } T I t.3 # b %.=.} ....} T T I R T U R P < ; "
};
